<?xml version="1.0" encoding="UTF-8"?>
<svg id="a" data-name="Size 2" xmlns="http://www.w3.org/2000/svg" width="4167" height="4167" viewBox="0 0 4167 4167">
  <metadata>
    <rdf:RDF xmlns:rdf="http://www.w3.org/1999/02/22-rdf-syntax-ns#"
             xmlns:dc="http://purl.org/dc/elements/1.1/"
             xmlns:cc="http://web.resource.org/cc/">
      <cc:Work rdf:about="">
        <dc:title>Secret Ermine Bot Icon</dc:title>
        <dc:creator>Megan Beckel</dc:creator>
        <dc:rights>Megan Beckel</dc:rights>
        <cc:license rdf:resource="http://creativecommons.org/licenses/by/4.0/" />
      </cc:Work>
    </rdf:RDF>
  </metadata>
  <path d="M4166.83,2083.5c0,1150.59-932.74,2083.33-2083.33,2083.33-58.29,0-116.02-2.39-173.1-7.09-8.17-.67-16.32-1.39-24.45-2.16-724.54-68.15-1341.16-507.35-1657.84-1125.6-3.46-6.75-6.89-13.53-10.27-20.33C78.53,2732.17.17,2416.99.17,2083.5.17,932.91,932.91.17,2083.5.17s2083.33,932.74,2083.33,2083.33Z" fill="#282038" fill-rule="evenodd"/>
  <path d="M2326.8,3276.25c-4.32,14.7-16.24,38.72-46.01,76.88-23.42,30.04-54.6,64.48-90.81,100.38-.09.09-.17.17-.25.26-4.7,4.65-9.49,9.34-14.35,14.03-81.86,79.12-174.12,151.54-224.34,176.12-5.64,2.76-7.97,9.56-5.22,15.19,1.97,4.03,6.01,6.37,10.21,6.37,1.67,0,3.38-.38,4.98-1.16,21.21-10.38,48.77-28.22,79.64-51.15,33.83-25.13,71.64-56.37,109.41-90.58-2.38,4.36-4.72,8.66-7,12.93-67.86,126.28-96.36,213.01-126.25,303.97-29.36,89.29-59.68,181.56-130.86,318.09-724.54-68.15-1341.16-507.35-1657.84-1125.6,57.41-35.07,113.73-68.36,169.2-101.15,102.59-60.64,200.16-118.3,290.87-179.47,2.56-1.72,5.12-3.45,7.67-5.18-24.22,78.77-45.35,157.49-63.16,235.31-7.73,33.72-14.83,67.26-21.29,100.57-1.2,6.16,2.83,12.12,8.99,13.31.72.14,1.45.21,2.17.21,5.33,0,10.08-3.76,11.13-9.2,23.36-120.34,54.42-241.65,92.95-363.1.35-1.14.72-2.27,1.09-3.42,33.53-105.34,72.67-210.8,117.26-315.79,8.28,78.46,26.85,153.19,55.28,222.47,22.72,55.35,51.79,107.3,86.78,155.15,14.75,20.2,30.58,39.67,47.42,58.35,49.53,54.94,109.37,105.5,177.88,150.26,61.07,39.91,130.64,76.25,206.75,108.01,70.04,29.22,145.5,50.11,218.47,70.32,29.38,8.13,59.15,16.37,88.76,25.22,46.81,13.98,93.24,29.48,137.14,48.44,20.27,8.77,41,16.22,61.62,22.18l.01.01c51.41,17.8,102.32,22.43,154.34,22.43,27.5-.01,55.33-1.3,83.69-2.62l10.12-.46c37.24-1.71,75.76-10.46,113.55-25.65,11.91,6.25,25.39,12.54,40,18.07Z" fill="#fff"/>
  <path id="b" data-name="Neck Shadow" d="M980.934,2753.01c50.529,268.889,324.292,658.729,558.491,801.04-82.541-183.425,122.659-467.207,328.543-322.176-248.931-81.46-509.348-170.731-698.16-302.511-42.112-29.392-196.342-175.943-188.875-176.354Z" fill="#faacb9"/>
  <path id="c" data-name="R Neck Blush" d="M1959.473,3654.122c78.555-31.259,152.3-84.996,211.323-145.529" fill="none" stroke="#faacb9" stroke-linecap="round" stroke-linejoin="round" stroke-width="22.707"/>
  <path id="d" data-name="L Neck Blush" d="M622.549,3084.224c8.542-113.524,23.54-230.667,73.03-351.598" fill="none" stroke="#faacb9" stroke-linecap="round" stroke-linejoin="round" stroke-width="22.707"/>
  <path id="e" data-name="Lip Fill" d="M2587.604,3188.794c-34.76,39.029-89.058,70.892-138.397,80.075-48.857,9.092-97.869-5.368-135.426-22.698,7.875-3.842,15.695-7.966,23.443-12.371,48.458-27.539,89.948-63.39,120.685-104.19,37.403,31.118,82.346,51.564,129.695,59.184Z" fill="#fff"/>
  <path id="f" data-name="Head Fill" d="M3138.325,2335.952c-10.945,95.943-52.99,238.173-119.431,323.707-17.339,22.326-34.406,42.672-50.919,62.354-37.467,44.661-73.145,87.187-102.882,142.656-9.937-28.875-26.322-53.081-48.394-70.838-4.887-3.933-12.035-3.152-15.968,1.726-3.924,4.887-3.152,12.035,1.735,15.968,24.924,20.046,41.382,50.183,47.922,86.887,0,.018.009.027.009.045.064.291.109.591.155.881.009.009.009.018.009.027,0,.009,0,.018.009.027,1.998,11.581,3.024,23.806,3.015,36.568-.027,71.782-32.599,146.135-81.038,185.028-84.698,68.013-210.824,63.553-297.866-9.019,25.024-1.471,50.864-3.043,78.068-5.114l3.897-.3,2.879-2.625c29.156-26.531,45.306-62.954,44.988-100.92,12.271-6.794,23.053-16.504,31.454-28.411,9.973-14.115,15.931-30.337,17.212-46.904,2.661-34.343-13.697-68.186-41.682-86.233l-1.953-1.262-2.289-.391c-68.331-11.653-130.44-13.434-189.87-5.441-54.089,7.275-104.472,22.489-154.028,46.514l-3.234,1.562-1.744,3.143c-12.489,22.544-18.302,47.059-16.803,70.91,1.599,25.232,11.372,48.348,28.266,66.841,11.408,12.489,24.124,19.892,36.704,21.554,8.138,30.01,36.186,57.74,61.092,72.028l3.034,1.744,3.488-.272c24.142-1.844,47.268-3.288,69.703-4.623-61.301,82.691-170.623,142.856-269.191,147.371l-10.127.472c-83.263,3.869-155.173,7.212-229.707-18.647-.027-.009-.045-.018-.073-.027-.064-.018-.127-.045-.191-.064-60.492-21.091-124.772-87.578-149.596-154.728-22.771-61.61-12.671-131.839,26.359-183.275,3.788-4.996,2.807-12.117-2.18-15.904-4.996-3.788-12.126-2.816-15.913,2.18-43.671,57.549-54.997,136.053-29.565,204.875,12.68,34.288,35.741,70.093,64.952,100.821,3.161,3.324,6.376,6.567,9.637,9.71-62.509-23.915-128.251-42.108-192.177-59.811-72.291-20.01-147.044-40.71-215.774-69.394-158.37-66.078-285.041-151.04-376.515-252.515-108.078-119.895-172.358-274.177-185.882-446.153-.5-6.331-.899-12.734-1.19-19.201-.227-4.859-.391-9.764-.5-14.696-3.433-149.778,43.898-328.52,112.964-425.59,3.497,28.575,9.519,58.04,18.011,87.587,19.81,68.948,51.355,131.158,84.371,166.427,2.234,2.389,5.259,3.597,8.293,3.597,2.779,0,5.568-1.017,7.757-3.07,4.578-4.287,4.814-11.472.527-16.049-30.682-32.762-60.265-91.52-79.131-157.171-21.054-73.281-26.304-145.618-14.787-203.685,26.059-131.357,81.837-240.016,170.532-332.181,31.945-33.207,62.118-64.562,100.166-84.253.009,0,.009-.009.018-.009,56.142-27.612,172.939,7.166,256.874,170.995,6.585,12.861,13.007,24.26,19.219,35.296,21.908,38.902,37.731,67.014,37.222,115.553-.263,25.223-3.697,55.797-7.339,88.159-4.133,36.795-8.411,74.843-7.72,105.299,2.18,96.56,58.803,172.966,159.442,215.138,1.426.599,2.916.89,4.378.89,4.442,0,8.656-2.625,10.482-6.967,2.416-5.786-.3-12.444-6.086-14.86-91.865-38.502-143.547-107.66-145.518-194.72-.654-28.92,3.533-66.197,7.593-102.247,3.533-31.5,7.203-64.08,7.475-90.457.572-54.616-18.293-88.132-40.138-126.934-6.104-10.836-12.416-22.044-18.802-34.506-50.483-98.532-108.804-145.363-148.842-167.308-11.226-6.149-22.444-11.172-33.607-15.041,73.426,1.871,154.746,39.674,206.8,84.017,60.193,51.301,128.414,112.547,176.109,190.478,68.186,111.402,123.283,251.098,140.377,355.887,1.008,6.195,6.849,10.391,13.034,9.383,6.185-1.008,10.382-6.849,9.373-13.034-9.028-55.397-28.03-120.013-54.934-186.881-25.087-62.336-55.678-123.619-88.477-177.208-49.438-80.774-119.232-143.474-180.759-195.91-15.296-13.025-32.335-25.141-50.501-35.968,61.31-27.848,149.932-48.748,252.796-59.411,130.386-13.516,279.863-10.336,432.257,9.21,222.486,28.538,455.145,67.114,639.665,195.256,94.826,65.842,164.028,141.558,205.692,225.039,21.309,42.672,43.135,129.277,26.231,299.555-.009.091-.018.182-.027.273-5.495,50.328,7.884,95.952,20.818,140.077,13.279,45.278,25.814,88.041,20.282,136.516Z" fill="#fff"/>
  <path id="g" data-name="Lip Blush" d="M2425.229,3148.225c10.94-11.232,23.093-23.83,38.76-24.444,10.437-.409,20.193,4.726,29.368,9.718,26.068,14.183,52.135,28.365,78.203,42.548,5.784,3.147,12.073,6.89,13.997,13.187,2.007,6.568-1.498,13.478-5.336,19.174-21.864,32.45-57.914,53.522-95.811,63.261-37.897,9.739-77.734,9.055-116.65,4.981-17.073-1.787-32.968-6.403-49.566-10.331-9.362-2.216-21.003-5.357-19.022-18.063,2.037-13.067,27.845-21.794,37.963-28.264,15.148-9.687,29.769-20.198,43.778-31.469,15.565-12.523,30.377-25.986,44.316-40.297Z" fill="#fce0e5"/>
  <path id="h" data-name="L Cheeck Blush" d="M1928.599,3174.657c-6.467-29.841-4.345-62.503,11.258-88.749,17.502-29.44,50.016-47.551,83.489-54.807,33.473-7.256,68.217-4.919,102.307-1.611,34.09,3.307,68.416,7.551,102.481,3.999,28.945-3.018,57.063-11.611,85.955-15.096,28.892-3.485,60.062-1.242,83.976,15.342,15.787,10.948,27.05,27.179,37.04,43.588,5.353,8.791,10.577,18.163,11.176,28.438.868,14.889-8.059,28.467-17.46,40.045-43.754,53.884-105.824,91.274-172.17,111.671-66.346,20.397-136.907,24.509-206.118,19.239-14.976-1.14-29.968-2.728-44.687-5.792-11.645-2.424-31.64-5.428-40.817-13.577-9.404-8.351-16.015-27.459-21.241-38.761-6.513-14.088-11.897-28.74-15.189-43.931Z" fill="#fce0e5"/>
  <path id="i" data-name="R Cheeck Blush" d="M2482.021,3047.095c33.192-34.939,79.453-54.834,126.294-66.165,46.841-11.33,95.154-14.961,142.729-22.645,14.023-2.265,28.147-4.893,42.326-4.04,14.179.853,28.702,5.611,38.377,16.011,16.263,17.482,14.427,45.15,7.031,67.853-22.757,69.855-88.77,121.182-160.896,135.165-43.788,8.489-89.357,4.224-131.693-9.271-21.18-6.751-40.956-16.121-60.553-26.502-13.252-7.02-21.606-12.504-25.934-27.792-6.739-23.804,6.401-45.856,22.32-62.614Z" fill="#fce0e5"/>
  <g id="j" data-name="Freckle L">
    <path d="M2033.819,2973.751c-14.689,5.948-35.564-10.045-39.626-26.73,10.639-7.062,20.291-4.24,27.983.183,6.739,3.875,17.696,17.822,11.642,26.547Z" fill="#040404"/>
    <path d="M1931.847,3049.04c-5.4,8.06-32.118-6.462-30.786-20.152.806-8.287,16.738-5.492,22.179-1.828,4.71,3.172,16.651,9.972,8.607,21.98Z" fill="#040404"/>
    <path d="M1924.142,3166.152c2.886,2.565,7.737,6.473,9.475,9.855,3.811,7.417.156,13.104-8.841,12.128-2.97-3.291-11.066-5.221-14.58-6.733-4.428-1.905-6.355-13.642.687-14.138l13.259-1.112Z" fill="#040404"/>
    <path d="M2110.494,3050.575c-5.984,9.903-16.577,6.093-20.831,4.545-4.915-1.788-10.211-12.852-4.767-17.41,10.984-9.195,30.915,4.067,25.598,12.865Z" fill="#040404"/>
    <path d="M2090.065,3215.508c-8.374,6.927-27.731-6.316-25.726-13.224,2.79-9.61,15.612-6.03,20.003-4.369,4.961,1.877,13.795,10.916,5.723,17.593Z" fill="#040404"/>
    <path d="M2010.846,3125.636c-1.706,7.512-12.895,5.921-16.978,3.796-4.3-2.238-12.42-8.065-8.313-18.873,2.96-7.79,28.561.679,25.291,15.077Z" fill="#040404"/>
  </g>
  <g id="k" data-name="Freckle R">
    <path d="M2709.772,2954.896c-8.399-5.272,3.975-27.64,19.178-24.247,7.259,1.62,6.216,12.719,4.322,18.014-2.243,6.271-12.17,13.345-23.5,6.233Z" fill="#040404"/>
    <path d="M2719.041,3081.125c-7.599,26.033-25.146,26.482-38.504,21.695,8.522-17.157,25.223-28.808,38.504-21.695Z" fill="#040404"/>
    <path d="M2794.995,3054.12c1.756,14.26-5.457,14.883-7.833,17.643-4.262,4.952-13.131,6.749-15.559-.251-3.536-10.195,1.258-16.919,4.892-21.484,5.06-6.355,17.118-7.122,18.499,4.092Z" fill="#040404"/>
  </g>
  <g id="l" data-name="L Ear">
    <path id="m" data-name="L Ear Shadow" d="M1407.884,1385.265c-7.549-6.075-16.961,23.794-11.231,35.207,6.48,12.907,84.283,120.146,118.955,187.172,34.673,67.026,27.534,142.58,25.948,218.026-.679,32.296-22.447,63.149-52.646,74.617-30.199,11.468-59.71-.613-86.402-18.807-44.369-30.243-73.027-82.349-74.808-136.015-1.781-53.666,23.359-107.557,65.624-140.676,20.172-15.806,44.607-14.916,40.056-42.467-85.026,15.19-150.061,71.081-154.597,150.861-2.625,46.167-20.992,115.124-53.741,138.113-51.213,35.951-54.924,30.143-67.474,48.815-43.245,64.343-19.852,99.261,5.614,183.758,9.103,30.204-70.192,48.946-72.657,56.122-16.291,47.425,41.209,47.976,116.673,18.198,36.331-14.336,90.531-51.127,124.133-71.038,64.549-38.248,116.411-57.647,190.907-48.715,74.496,8.932,128.325,60.196,211.8,72.25-30.738-30.11-80.463-49.575-111.045-79.843s-31.229-79.538-40.194-121.622c-10.892-51.131,4.277-103.786,11.05-155.623,9.306-71.219-15.044-148.483-54.387-207.404-38.505-57.666-77.561-117.459-131.58-160.931Z" fill="#faacb9"/>
    <g id="n" data-name="L Ear Fold">
      <path d="M1125.746,2168.246c34.286-1.772,118.329-32.307,120.408-46.048,2.474-16.354-10.169-34.54-24.471-42.849-32.834-19.077-57.401-41.247-70.775-76.788-14.114-37.507,1.034-89.516,30.195-117.005,56.029-52.816,185.873-5.388,215.942,24.234" fill="none" fill-rule="evenodd" stroke="#040404" stroke-linecap="round" stroke-miterlimit="10" stroke-width="22.707"/>
      <path d="M1323.828,1832.74c-35.619-45.215-45.72-109.266-25.745-163.248,19.975-53.982,69.336-96.031,125.807-107.17" fill="none" fill-rule="evenodd" stroke="#040404" stroke-linecap="round" stroke-miterlimit="10" stroke-width="22.707"/>
    </g>
  </g>
  <g id="o" data-name="Nose Blush">
    <path d="M2259.867,2901.132c-32.751-9.319-73.279-40.182-115.419-76.156" fill="none" stroke="#faacb9" stroke-linecap="round" stroke-miterlimit="10" stroke-width="22.707"/>
    <path d="M2611.853,2851.03c27.785-49.179,33.998-84.091,33.998-109.916" fill="none" stroke="#faacb9" stroke-linecap="round" stroke-miterlimit="10" stroke-width="22.707"/>
    <path d="M1642.332,2609.159c94.898,48.08,180.59,14.531,286.082-56.677,26.395-17.816,102.117,43.114,65.581-7.116-23.91-32.872-74.567-173.062-39.82-300.448" fill="none" stroke="#faacb9" stroke-linecap="round" stroke-miterlimit="10" stroke-width="22.707"/>
    <path d="M1968.454,2519.094c-8.144,15.772,2.097,20.967,15.979,31.837" fill="none" stroke="#faacb9" stroke-linecap="round" stroke-miterlimit="10" stroke-width="22.707"/>
    <path d="M2903.003,2490.182c-13.844,43.796-45.868,56.157-90.658,45.978-20.588-4.678-72.461-34.946-93.304-38.314-43.879-7.09-97.822,23.211-100.23,3.026-4.252-35.64,12.691-66.137,12.969-104.765.719-99.89-28.327-191.41-66.015-229.368" fill="none" stroke="#faacb9" stroke-linecap="round" stroke-miterlimit="10" stroke-width="22.707"/>
  </g>
  <g id="p" data-name="Eyes">
    <g id="q" data-name="L Eye">
      <path d="M1974.997,2543.639c-18.57,8.879-29.837-13.718-49.232.229-40.753,29.308-206.618,131.451-290.107,46.406-52.309-57.35-39.565-175.873-22.58-245.748,6.367-19.537,20.927-50.356,43.898-55.579,110.675-25.169,209.127,39.226,270.799,128.751,42.824,62.165,72.916,113.656,47.223,125.941Z" fill="#040404"/>
      <circle cx="1815.078" cy="2404.496" r="32.193" fill="#fff"/>
    </g>
    <g id="r" data-name="R Eye">
      <path d="M2905.96,2461.969c-9.137,48.893-55.061,89.539-105.144,63.181-57.677-28.593-91.138-49.729-156.299-24.914-19.973,5.931-37.431-22.771-35.405-38.176l14.678-40.464c43.398-193.003,353.298-327.151,282.17,40.374Z" fill="#040404"/>
      <circle cx="2842.284" cy="2334.188" r="32.193" fill="#fff"/>
    </g>
  </g>
  <g id="s" data-name="Nose Bridge">
    <path d="M2515.093,2042.646c75.877,156.113,110.193,314.782,89.048,465.802" fill="none" fill-rule="evenodd" stroke="#040404" stroke-linecap="round" stroke-miterlimit="10" stroke-width="22.707"/>
    <path d="M1988.107,2079.348c-49.398,159.661-35.546,345.329,37.917,495.446" fill="none" fill-rule="evenodd" stroke="#040404" stroke-linecap="round" stroke-miterlimit="10" stroke-width="22.707"/>
    <path d="M2047.854,2693.236c29.817,63.471,89.18,137.788,150.085,172.548" fill="none" fill-rule="evenodd" stroke="#040404" stroke-linecap="round" stroke-miterlimit="10" stroke-width="22.707"/>
    <path d="M2629.825,2814.766c23.887-51.724,17.292-113.688,4.598-168.807" fill="none" fill-rule="evenodd" stroke="#040404" stroke-linecap="round" stroke-miterlimit="10" stroke-width="22.707"/>
  </g>
  <g id="t" data-name="Nose Color">
    <path d="M2376.476,3083.882c-18.992-12.62-38.34-34.082-40.488-52.842l-1.315-11.563c-.347-3.043-1.907-5.816-4.328-7.692-2.001-1.551-4.45-2.378-6.953-2.378-.524,0-1.051.036-1.576.109l-11.535,1.617c-.257.036-.522.055-.794.055-4.296,0-10.953-4.248-16.962-10.822-11.165-12.217-17.87-27.395-19.391-43.892-1.444-15.676,1.791-32.25,9.37-48.152,64.456-30.04,132.296-44.65,207.249-44.65,33.203,0,68.284,2.986,104.319,8.881,15.411,11.831,24.259,32.158,22.678,52.512-1.651,21.385-15.932,41.603-35.537,50.315l-7.237,3.215c-4.354,1.934-7.036,6.379-6.719,11.132l.527,7.902c1.834,27.715-8.437,55.147-28.277,75.876-28.18,2.07-54.861,3.627-80.705,5.134-26.288,1.528-53.435,3.106-82.325,5.244Z" fill="#faacb9"/>
    <path d="M2489.762,2875.025c31.668,0,65.113,2.775,99.494,8.251,11.126,9.715,17.387,25.275,16.172,40.92-1.318,17.07-13.172,33.851-28.823,40.807l-7.239,3.215c-8.706,3.867-14.073,12.757-13.439,22.263l.526,7.892c1.533,23.159-6.523,46.132-22.271,64.136-26.485,1.907-51.637,3.373-76.039,4.795-25.129,1.461-51.039,2.968-78.52,4.964-17.197-12.333-30.933-30.09-32.355-42.503l-1.317-11.572c-.693-6.085-3.814-11.633-8.656-15.383-4.003-3.101-8.901-4.756-13.906-4.756-1.048,0-2.102.073-3.152.22l-10.508,1.473c-1.671-.668-5.232-3.107-8.825-7.038-18.288-20.011-21.773-47.945-9.814-75.84,29.437-13.387,60.186-23.653,91.513-30.548,34.053-7.494,70.103-11.295,107.154-11.295h.004M2489.751,2852.317c-77.801.002-149.053,15.73-215.654,47.413-19.901,38.385-16.168,79.612,10.046,108.296,4.141,4.53,14.493,14.515,25.342,14.515.788,0,1.58-.053,2.37-.164l11.535-1.617,1.317,11.572c2.716,23.706,26.132,49.166,48.839,63.154,30.037-2.262,58.422-3.915,85.916-5.513,27.267-1.589,55.415-3.234,85.107-5.459,24.143-23.398,36.695-55.124,34.542-87.641l-.527-7.902,7.239-3.215c23.298-10.355,40.283-34.397,42.245-59.811,1.971-25.359-9.555-50.283-29.483-64.153-37.718-6.309-73.93-9.474-108.834-9.473h0Z" fill="#e46173"/>
  </g>
  <path id="u" data-name="Ermine Outline" d="M2258.38,2885.59l1.74-3.14,3.24-1.57c49.55-24.02,99.94-39.24,154.03-46.51,23.93-3.22,48.29-4.85,73.32-4.89-25.9-.07-51.08,1.57-75.79,4.89-54.09,7.27-104.47,22.49-154.03,46.51l-3.23,1.57-1.75,3.14c-2.21,3.99-4.21,8.05-6,12.15-8.32,19.05-12.03,39.13-10.8,58.76,1.6,25.23,11.37,48.35,28.27,66.84.94,1.02,1.88,2.02,2.83,2.97.68-.14,1.36-.29,2.04-.43-.81-.82-1.61-1.67-2.41-2.54-16.89-18.49-26.67-41.61-28.26-66.84-1.22-19.35,2.38-39.14,10.45-57.95,1.87-4.38,3.99-8.71,6.35-12.96ZM2470.45,1378.37c-3.3-2.72-6.8-5.24-10.52-7.53-26.4-16.32-55.85-24.78-85.24-24.55-15.83.14-32.08,3.91-43.85,7.43-.28.08-.55.16-.82.24,47.23,7.11,94.5,15.22,141.26,25.1-.27-.24-.55-.47-.83-.69ZM2273.57,1345.55c-11.95-1.62-23.89-3.2-35.8-4.74.14.12.28.24.42.37,11.87,1.54,23.77,3.12,35.69,4.75-.11-.13-.21-.26-.31-.38ZM1893.96,1992.41c-.52-1.03-.89-2.15-1.09-3.35-15.4-94.45-61.68-217.26-120.59-322.14-1.2-.33-2.33-.86-3.35-1.56,59.34,105.23,105.99,228.78,121.48,323.7.27,1.68.91,3.22,1.8,4.54,2.29,3.38,6.33,5.38,10.6,4.92-3.78-.42-7.11-2.74-8.85-6.11ZM1731.41,2110.29c-1.34-.2-2.68-.42-4.01-.65.92.4,1.85.79,2.78,1.18,1.43.6,2.92.89,4.38.89.4,0,.8-.02,1.2-.07-1.05-.12-2.09-.39-3.11-.82-.41-.17-.83-.35-1.24-.53ZM1579.62,1445.45c-12.4-9.52-24.98-18.45-37.65-26.71,11.51,7.63,22.24,15.68,31.95,23.95,46.46,39.6,97.72,85.13,140.61,139.68-13.32-17.75-27.63-35.04-42.71-51.64-30.25-31.46-62.16-59.62-92.2-85.28ZM1426.94,1367.3c34.57,8.75,68.7,23.46,98.77,41.26-2.13-1.29-4.26-2.55-6.39-3.79-30-17.45-61.44-30.03-92.38-37.47ZM3137.37,2193.05c-.11-.37-.22-.75-.33-1.12-2.15-7.34-4.28-14.61-6.31-21.85-8.61-30.71-15.39-60.81-14.47-92.68.14-5.04.48-10.12,1.03-15.25.02-.15.04-.28.05-.43.01-.04.02-.08.02-.12.4-4,.78-7.97,1.13-11.91,1.65-18.1,2.88-35.66,3.7-52.64.44-8.81.75-17.46.96-25.96,2.36-95.84-9.23-171.52-34.28-221.7-3.84-7.69-7.9-15.31-12.18-22.87-4.99-8.83-10.29-17.57-15.89-26.21-43.78-67.61-105.79-129.48-184.99-184.47-86-59.73-187.84-104.89-311.31-138.07-98.29-26.41-198.49-42.72-316.61-58.22-7.2-.95-14.47-1.89-21.81-2.83-11.39-1.46-22.76-2.83-34.11-4.11-17.96-2.02-35.86-3.82-53.68-5.39-17.06-1.5-34.04-2.8-50.93-3.88-2.07-.14-4.14-.27-6.2-.39-10.71-.66-21.37-1.23-31.99-1.72-91.54-4.23-179.65-2.18-260.56,6.21-113.64,11.78-210.82,36.03-274.72,68.46-.05.02-.1.04-.15.07-17.78-9.04-36.29-16.83-55.02-23.08-9.53-3.18-18.97-5.92-28.29-8.21-.23-.06-.47-.11-.72-.17-42.59-10.37-82.75-11.44-117.52-2.98-5.94,1.44-11.71,3.08-17.36,4.94-7.6,2.48-14.97,5.34-22.21,8.63-3.49,1.57-6.95,3.24-10.38,5.01-3.34,1.73-6.61,3.51-9.83,5.39-36.73,21.3-65.82,51.54-96.48,83.4-91.79,95.39-149.5,207.75-176.43,343.51-5.66,28.5-7.53,60.14-5.71,93.51-.17.17-.32.35-.48.53-41.86,49.99-78.38,128.62-102.83,221.41-21.97,83.32-32.11,170.11-29.13,247.35-50.31,114.82-94.87,232.41-132.51,349.62-.67,2.07-1.33,4.14-1.98,6.21-98.84,68.89-206.84,132.71-321.1,200.24-55.05,32.54-110.95,65.58-167.92,100.37,3.38,6.8,6.81,13.58,10.27,20.33,57.41-35.07,113.73-68.36,169.2-101.15,102.59-60.64,200.16-118.3,290.87-179.47,2.56-1.72,5.12-3.45,7.67-5.18-24.22,78.77-45.35,157.49-63.16,235.31-7.73,33.72-14.83,67.26-21.29,100.57-1.2,6.16,2.83,12.12,8.99,13.31.72.14,1.45.21,2.17.21,5.33,0,10.08-3.76,11.13-9.2,23.36-120.34,54.42-241.65,92.95-363.1.35-1.14.72-2.27,1.09-3.42,33.53-105.34,72.67-210.8,117.26-315.79,8.28,78.46,26.85,153.19,55.28,222.47,22.72,55.35,51.79,107.3,86.78,155.15,14.75,20.2,30.58,39.67,47.42,58.35,49.53,54.94,109.37,105.5,177.88,150.26,61.07,39.91,130.64,76.25,206.75,108.01,70.04,29.22,145.5,50.11,218.47,70.32,29.38,8.13,59.15,16.37,88.76,25.22,46.81,13.98,93.24,29.48,137.14,48.44,20.27,8.77,41,16.22,61.62,22.18l.01.01c51.41,17.8,102.32,22.43,154.34,22.43,27.5-.01,55.33-1.3,83.69-2.62l10.12-.46c37.24-1.71,75.76-10.46,113.55-25.65,11.91,6.25,25.39,12.54,40,18.07-4.32,14.7-16.24,38.72-46.01,76.88-23.42,30.04-54.6,64.48-90.81,100.38-.09.09-.17.17-.25.26-4.7,4.65-9.49,9.34-14.35,14.03-81.86,79.12-174.12,151.54-224.34,176.12-5.64,2.76-7.97,9.56-5.22,15.19,1.97,4.03,6.01,6.37,10.21,6.37,1.67,0,3.38-.38,4.98-1.16,21.21-10.38,48.77-28.22,79.64-51.15,33.83-25.13,71.64-56.37,109.41-90.58-2.38,4.36-4.72,8.66-7,12.93-67.86,126.28-96.36,213.01-126.25,303.97-29.36,89.29-59.68,181.56-130.86,318.09,8.13.77,16.28,1.49,24.45,2.16,68.96-133.59,98.95-224.82,127.98-313.17,35.29-107.4,68.63-208.85,168.47-377.82,46.73-46.5,124.4-129.79,141.44-185.21,21.82,6.51,45.48,10.83,69.84,10.83,11.63,0,23.41-.98,35.23-3.18,59.86-11.13,123.85-50.76,161.31-99.46h.01c.71.03,1.41.07,2.12.11,4.2.2,8.39.3,12.57.3,57.12,0,111.73-18.75,154.92-53.44,26.94-21.63,49.67-52.69,65.72-89.81,15.57-36,23.8-75.04,23.81-112.92.01-12.97-.95-25.46-2.85-37.4v-.01c30.63-65.04,68.36-110.02,111.93-161.96,16.65-19.84,33.86-40.36,51.47-63.01,69.12-88.99,112.76-236.07,124.05-335.06,6.05-53.03-7.73-100.03-21.05-145.48ZM2324.71,3032.33l-1.32-11.57-11.53,1.62c-3.94.55-7.87-.35-11.52-1.98-7.17-3.18-13.26-9.16-16.2-12.37-26.21-28.69-29.94-69.92-10.04-108.3,96.48-45.9,202.69-58.31,324.48-37.94,19.93,13.87,31.46,38.79,29.49,64.15-1.96,25.42-18.95,49.46-42.25,59.81l-7.24,3.22.03.42.5,7.48c2.15,32.52-10.4,64.25-34.54,87.64-29.69,2.23-57.84,3.87-85.11,5.46-.37.02-.73.04-1.1.06-5.26.31-10.55.62-15.89.93-22.18,1.31-45.03,2.72-68.92,4.53-22.71-13.99-46.13-39.45-48.84-63.16ZM2585.91,3190.67c-34.82,38.17-88.16,69.17-136.7,78.2-48.86,9.09-97.87-5.37-135.43-22.7,7.88-3.84,15.7-7.96,23.44-12.37,48.46-27.54,89.95-63.39,120.69-104.19,36.79,30.61,80.86,50.89,127.36,58.79.77.14,1.55.26,2.33.39-.56.63-1.13,1.26-1.69,1.88ZM2862.63,2864.67c-9.94-28.87-26.33-53.08-48.4-70.84-1.75-1.41-3.8-2.22-5.88-2.44-3.72-.4-7.56,1.04-10.09,4.17-3.92,4.88-3.15,12.03,1.74,15.97,24.92,20.04,41.38,50.18,47.92,86.88,0,.02.01.03.01.05.06.29.11.59.15.88.01.01.01.02.01.03s0,.01.01.02c2,11.58,3.03,23.81,3.02,36.57-.01,20.36-2.64,40.92-7.5,60.83-12.28,50.28-38.84,96.34-73.54,124.2-40,32.13-89.25,48.08-139.26,48.33-55.86.27-112.68-19.06-158.61-57.35,25.03-1.47,50.87-3.04,78.07-5.11l3.9-.3,2.88-2.63c29.15-26.53,45.3-62.95,44.99-100.92,11.89-6.58,22.39-15.91,30.66-27.32.27-.36.53-.72.79-1.09,9.97-14.11,15.93-30.34,17.21-46.9,2.47-31.89-11.45-63.33-35.84-82.12-1.89-1.45-3.83-2.83-5.84-4.12l-1.95-1.26-2.29-.39c-39.92-6.81-77.71-10.24-114.08-10.33-25.9-.07-51.08,1.57-75.79,4.89-54.09,7.27-104.47,22.49-154.03,46.51l-3.23,1.57-1.75,3.14c-2.21,3.99-4.21,8.05-6,12.15-8.32,19.05-12.03,39.13-10.8,58.76,1.6,25.23,11.37,48.35,28.27,66.84.94,1.02,1.88,2.02,2.83,2.97,10.66,10.7,22.32,17.06,33.87,18.58,8.14,30.01,36.19,57.74,61.09,72.03l3.04,1.74,2.17-.17,1.31-.1c24.15-1.84,47.27-3.29,69.71-4.62-.04.05-.07.1-.12.15-61.32,82.61-170.57,142.71-269.08,147.22l-10.12.47c-27.27,1.27-53.33,2.48-78.65,2.63-1.27,0-2.53.01-3.78.01-41.14.06-80.4-2.83-119.93-13.04-9.09-2.34-18.2-5.07-27.35-8.25-.03,0-.05-.01-.07-.02-.07-.02-.13-.05-.19-.07-60.5-21.09-124.78-87.57-149.6-154.72-22.77-61.61-12.67-131.84,26.36-183.28,3.79-4.99,2.81-12.12-2.18-15.9-1.72-1.3-3.68-2.04-5.68-2.24h-.01c-3.82-.41-7.74,1.14-10.22,4.42-43.67,57.55-55,136.05-29.57,204.87,12.68,34.29,35.74,70.09,64.95,100.82,2.65,2.79,5.35,5.53,8.07,8.18.52.52,1.05,1.02,1.57,1.53-62.51-23.91-128.25-42.11-192.18-59.81-33.88-9.38-68.31-18.91-102.41-29.34-.01,0-.02-.01-.03-.01-38.63-11.83-76.83-24.81-113.33-40.04-157.07-65.54-282.95-149.64-374.24-250.02-.76-.83-1.52-1.67-2.27-2.5-108.08-119.89-172.36-274.18-185.89-446.15-.5-6.33-.9-12.74-1.19-19.2-.22-4.86-.39-9.77-.5-14.7-3.43-149.78,43.9-328.52,112.97-425.59.12.98.24,1.97.38,2.96,3.53,27.65,9.43,56.1,17.63,84.63,19.81,68.95,51.35,131.16,84.37,166.42,2.24,2.39,5.26,3.6,8.29,3.6.41,0,.83-.02,1.24-.07,2.36-.26,4.66-1.26,6.52-3,.5-.47.95-.98,1.35-1.51,3.23-4.32,2.99-10.46-.82-14.54-2.51-2.68-5.01-5.53-7.5-8.55-27.96-33.87-54.31-88.34-71.63-148.62-21.06-73.28-26.31-145.62-14.79-203.68,26.06-131.36,81.84-240.02,170.53-332.18,31.95-33.21,62.12-64.57,100.17-84.26.01,0,.01-.01.02-.01,11.57-5.69,25.73-8.73,41.64-8.54h.12c24.4.33,52.92,8.25,82.61,25.89,44.87,26.64,92.43,75.44,132.5,153.65,6.59,12.86,13.01,24.26,19.22,35.29,21.91,38.91,37.73,67.02,37.22,115.56-.26,25.22-3.69,55.79-7.34,88.16-4.13,36.79-8.41,74.84-7.72,105.29,2.16,95.68,57.77,171.55,156.66,213.96.92.4,1.85.79,2.78,1.18,1.43.6,2.92.89,4.38.89.4,0,.8-.02,1.2-.07,3.99-.42,7.63-2.94,9.28-6.89,1.54-3.67,1-7.7-1.08-10.76-1.18-1.77-2.89-3.22-5-4.1-91.87-38.51-143.55-107.66-145.52-194.72-.65-28.92,3.53-66.2,7.59-102.25,3.54-31.5,7.21-64.08,7.48-90.46.57-54.61-18.29-88.13-40.14-126.93-6.1-10.84-12.41-22.04-18.8-34.51-50.48-98.53-108.8-145.36-148.84-167.3-10.5-5.75-20.99-10.52-31.43-14.28-.72-.26-1.45-.52-2.18-.77.9.02,1.8.05,2.71.09,18.65.69,37.78,3.68,56.78,8.46.11.03.22.05.33.08,34.57,8.75,68.7,23.46,98.77,41.26,5.51,3.26,10.88,6.62,16.09,10.07.06.04.11.07.17.11,11.51,7.63,22.24,15.68,31.95,23.95,46.46,39.6,97.72,85.13,140.61,139.68,12.67,16.12,24.62,33.02,35.5,50.8,6.42,10.5,12.73,21.25,18.9,32.19,59.34,105.23,105.99,228.78,121.48,323.7.27,1.68.91,3.22,1.8,4.54,2.29,3.38,6.33,5.38,10.6,4.92.21-.02.42-.05.63-.08,6.19-1.01,10.38-6.85,9.37-13.03-9.02-55.4-28.03-120.02-54.93-186.89-18.31-45.49-39.56-90.43-62.45-132.22-3.87-7.07-7.79-14.04-11.75-20.92-4.7-8.17-9.47-16.2-14.28-24.06-12.64-20.65-26.6-40.12-41.41-58.53-43.16-53.63-93.55-98.35-139.35-137.38-9.22-7.86-19.08-15.38-29.44-22.48-6.81-4.69-13.85-9.19-21.06-13.49,61.31-27.85,149.94-48.75,252.8-59.41,53.38-5.54,109.97-8.27,168.64-8.23,35.93.03,72.64,1.09,109.89,3.2,7.82.44,15.66.92,23.53,1.46,42.9,2.9,86.43,7.17,130.2,12.78,4.99.64,9.99,1.29,14.99,1.94,11.87,1.54,23.77,3.12,35.69,4.75,18.69,2.55,37.41,5.21,56.14,8.03,47.23,7.11,94.5,15.22,141.26,25.1,139.92,29.5,275.31,74.68,391.58,155.43,71.87,49.9,129.02,105.47,170.6,165.8,5.02,7.26,9.8,14.59,14.35,21.99,7.54,12.23,14.45,24.65,20.74,37.25,21.31,42.67,43.14,129.28,26.24,299.56-.01.09-.02.18-.03.27-.04.41-.09.81-.12,1.22-.82,7.81-1.17,15.5-1.14,23.09.12,40.9,11.25,78.86,22.08,115.77,13.28,45.27,25.81,88.04,20.28,136.51-10.95,95.95-52.99,238.18-119.43,323.71-17.34,22.32-34.41,42.67-50.92,62.35-36.85,43.92-71.97,85.78-101.39,139.92-.51.91-1,1.82-1.49,2.74Z" fill="#040404"/>
  <g id="v" data-name="Hat 2">
    <path d="M3812.22,2300.721c14.088-19.437,20.019-45.832,15.159-69.23-3.46-16.649-11.944-30.419-24.333-39.847,9.183-15.332,15.241-32.862,17.939-52.236,4.969-35.669-1.88-77.287-19.274-117.161-34.079-78.104-128.569-123.001-210.643-100.085-.572.164-1.117.364-1.644.6-36.913-175.192-40.909-347.495-42.762-427.279-.454-19.574-.781-33.716-1.435-41.663-4.796-58.185-21-125.036-48.167-198.698-23.988-65.052-56.523-134.782-94.099-201.641-72.546-129.069-156.027-234.258-212.659-267.983-120.767-71.901-256.02-126.162-402.019-161.267-132.92-31.972-272.652-47.704-415.299-46.759-131.966.872-261.016,15.813-383.554,44.416-115.871,27.049-222.096,66.06-307.176,112.81-67.45,37.077-120.694,78.104-158.234,121.975-39.674,46.359-60.501,94.372-61.891,142.72-.1,3.47,1.372,6.621,3.76,8.765-12.843,6.749-25.459,13.997-37.694,21.917-52.054,33.679-90.057,75.924-109.904,122.147-23.997,55.915-20.482,118.796,9.174,164.11,6.964,10.645,15.488,20.573,25.382,29.655,17.976,1.188,35.801,4.52,53.244,9.416-25.71-13.325-46.169-30.94-59.624-51.506-25.541-39.02-28.348-93.709-7.312-142.72,18.066-42.072,53.117-80.811,101.375-112.047,44.007-28.475,94.008-48.294,142.357-67.459,5.831-2.316,8.683-8.91,6.367-14.741-2.307-5.831-8.901-8.683-14.733-6.367-29.765,11.799-60.147,23.833-89.639,38.057,3.243-85.334,77.15-171.94,208.308-244.022,176.154-96.797,423.764-154.428,686.361-154.428,271.198,0,558.382,61.5,799.134,204.838,25.796,15.359,58.712,47.885,95.18,94.045,36.84,46.632,74.625,103.881,109.295,165.554,79.839,142.039,130.658,284.586,139.432,391.075.599,7.284.927,21.145,1.372,40.328,2.616,112.865,9.492,408.941,106.534,641.318-24.96,4.487-48.294,17.348-64.38,34.987-1.962-4.696-4.205-9.219-6.712-13.524-14.869-25.559-37.948-42.354-64.998-47.304-27.885-5.104-56.587-.772-80.82,12.198-.127.073-.254.136-.382.209-12.198-14.224-27.421-32.535-43.553-53.317-.154-.218-.327-.436-.499-.645-29.801-38.448-62.618-85.243-85.262-130.24v-.009c.146-1.053.273-2.098.409-3.17,4.85-39.256,5.777-87.65,2.671-139.959-6.985-117.887-32.399-241.242-71.564-347.358-21.954-59.475-62.082-124.209-97.487-181.332-31.036-50.047-60.338-97.324-72.736-133.029-2.062-5.922-8.529-9.056-14.451-6.994-5.922,2.053-9.056,8.52-7.003,14.451,13.225,38.076,43.171,86.388,74.889,137.543,34.842,56.205,74.326,119.904,95.489,177.226,37.858,102.565,63.444,226.792,70.202,340.828,3.215,54.252,1.999,102.764-3.088,140.767,0,.009-.009.018,0,.027-.127.963-.263,1.907-.4,2.852v.027c-3.979,28.211-10.137,50.401-18.248,64.525-14.26-8.429-30.192-12.798-46.704-12.88,8.792-21.2,12.125-45.633,9.446-70.792-3.551-33.389-17.185-63.381-38.394-84.426-21.027-20.873-49.529-31.454-82.373-30.637-22.489.563-45.624,6.549-66.85,17.112-1.68-49.057-27.612-99.74-67.495-128.76-22.544-16.404-48.848-27.131-76.079-31.027-22.816-3.252-45.297-1.508-65.915,5.041-2.571-21.944-11.317-42.898-25.732-61.355-16.803-21.518-40.937-39.266-69.775-51.328-27.204-11.372-58.44-16.758-87.959-15.168-25.668,1.38-48.748,7.811-67.677,18.747-10.291-30.364-26.313-63.562-56.305-82.083-26.404-16.313-55.851-24.778-85.243-24.542-17.312.145-35.133,4.642-47.031,8.393-2.943.927-14.069,5.613-23.461,10.046-5.15,2.434-9.283,4.523-12.598,6.358-14.288-23.679-32.807-44.252-53.081-58.794-26.795-19.22-54.416-29.038-82.092-29.184-15.377-.082-30.391,2.507-44.533,7.702-2.652.972-12.053,5.649-19.347,9.619-3.642,1.989-6.667,3.724-9.183,5.277-38.167-48.884-96.388-81.456-158.152-87.95-62.654-6.576-127.352,13.87-175.046,54.934-35.478-27.975-78.758-60.129-129.296-68.031-27.331-4.278-57.059.863-81.565,14.115-19.683,10.636-34.361,25.532-42.79,43.08-20.228-19.265-48.939-29.683-76.823-26.786-15.248,1.578-29.861,7.166-42.624,16.199,9.545,3.085,18.959,6.602,28.2,10.468,5.374-2.085,11.001-3.479,16.767-4.078,26.849-2.797,54.697,10.582,69.312,33.262,2.525,3.924,7.185,5.895,11.753,4.996,4.569-.908,8.12-4.514,8.956-9.092,8.002-43.662,61.927-66.523,105.307-59.739,48.249,7.557,89.676,40.392,126.225,69.357,4.414,3.497,10.736,3.224,14.832-.636,43.516-40.973,104.99-61.7,164.419-55.46,59.438,6.24,115.253,39.293,149.305,88.413,3.57,5.15,10.645,6.431,15.795,2.861,1.617-1.117,2.852-2.58,3.67-4.215,5.776-4.205,24.242-13.697,28.202-15.314,11.553-4.233,23.815-6.376,36.486-6.276,22.88.118,46.087,8.511,68.985,24.933,20.773,14.896,39.556,37.195,52.881,62.781.009.009.018.027.027.036,2.889,5.568,9.746,7.73,15.305,4.832,2.198-1.144,3.86-2.906,4.896-4.959,6.903-4.705,31.1-15.432,36.086-17.103,10.427-3.279,25.896-7.221,40.41-7.348,25.087-.2,50.356,7.103,73.117,21.163,28.375,17.521,42.209,54.025,51.092,83.872,1.072,3.597,3.86,6.431,7.439,7.575,3.579,1.145,7.484.436,10.445-1.871,34.588-27.067,94.681-30.946,146.135-9.437,52.626,21.999,83.4,62.263,82.328,107.696-.091,3.915,1.844,7.602,5.114,9.755s7.421,2.471,10.972.836c41-18.811,93.791-11.826,134.482,17.784,38.784,28.23,62.945,82.564,57.44,129.187-.527,4.396,1.562,8.692,5.332,11.009,3.77,2.316,8.547,2.225,12.235-.227,41.336-27.531,102.392-36.341,139.078.073,35.987,35.714,43.244,104.154,15.523,146.453-2.534,3.869-2.461,8.892.173,12.689,2.643,3.806,7.321,5.622,11.835,4.605,48.921-11.072,84.544,26.622,94.444,69.593,10.545,45.751-6.367,99.594-52.926,110.512-5.677,1.335-9.419,6.74-8.674,12.516,2.888,22.289-7.893,42.535-18.956,54.052-3.942,4.105-8.22,7.466-12.398,9.828-4.95,2.807-9.746,4.233-13.67,3.887-6.258-.554-11.762,4.06-12.307,10.309-.554,6.249,4.06,11.762,10.3,12.307,1.063.1,2.134.146,3.206.146,13.597,0,28.448-7.43,41.246-20.755,16.64-17.321,25.904-40.246,25.759-62.89,13.643-4.778,25.677-12.689,35.523-23.261-7.566,40.301-2.334,82.073,14.805,116.189,15.768,31.4,40.192,54.189,70.629,65.888,15.168,5.84,31.663,8.747,49.093,8.747,8.529,0,17.276-.699,26.204-2.089-13.288,41.373-7.72,82.328,16.186,114.854,22.834,31.064,59.63,49.529,96.806,49.529,5.059,0,10.127-.345,15.168-1.045,21.617-2.997,42.136-12.48,59.339-27.43,15.477-13.443,28.302-31.109,38.275-52.636,20.609,15.823,42.862,24.088,65.443,24.088,3.497,0,7.012-.2,10.527-.599,35.687-4.069,66.415-28.866,82.182-66.351,10.6-25.187,13.552-54.161,8.538-83.79-2.198-13.034-5.868-25.959-10.981-38.73ZM3260.74,2019.922c6.767-11.009,12.362-25.814,16.74-44.288,19.801,34.624,43.907,69.094,66.814,99.195-18.193,13.579-33.68,30.092-45.933,48.766.89-13.624-.2-27.649-3.333-41.255-5.722-24.842-17.739-46.614-34.288-62.418ZM3760.838,2257.305c40.228,51.736,52.527,110.476,32.898,157.135-12.543,29.801-36.404,49.466-63.826,52.59-2.607.3-5.214.445-7.82.445-21.254,0-42.572-9.782-62.2-28.321-.073-.073-.155-.145-.227-.218-.018-.009-.027-.027-.045-.036-7.366-6.994-14.487-15.214-21.272-24.624-3.67-5.087-10.763-6.231-15.85-2.562-5.087,3.67-6.231,10.763-2.562,15.85,6.013,8.329,12.289,15.868,18.783,22.589-17.766,42.526-47.022,68.549-82.936,73.526-33.943,4.705-69.484-10.781-90.566-39.447-21.881-29.747-24.697-68.676-7.966-107.451h.009c4.523-1.344,9.074-2.861,13.661-4.551,5.886-2.162,8.91-8.683,6.749-14.569-2.171-5.886-8.692-8.901-14.578-6.74-20.555,7.548-40.156,11.245-58.34,11.245-43.752,0-79.23-21.417-99.649-62.073-30.964-61.646-18.883-154.146,53.099-207.327,13.27,16.849,25.723,31.818,36.15,44.025-15.441,13.188-26.241,30.31-31.127,49.775-1.526,6.076,2.171,12.244,8.247,13.77,6.086,1.526,12.253-2.162,13.779-8.247,11.644-46.386,62.563-66.051,105.071-58.267,45.705,8.365,67.713,58.803,62.581,102.737-.735,6.231,3.724,11.862,9.955,12.589.445.054.89.082,1.335.082,5.677,0,10.582-4.26,11.263-10.037,1.544-13.207,1.044-26.713-1.326-39.729,12.298-21.191,37.649-37.031,64.97-40.492,2.634-.336,5.25-.554,7.829-.645h.018c.009-.009.018-.009.027,0,.191-.009.382-.018.573-.018.045,0,.091-.009.127-.009,22.362-.636,42.644,7.566,57.822,23.561,4.314,4.55,11.508,4.741,16.05.427,4.551-4.323,4.741-11.508.427-16.059-18.066-19.029-41.591-29.592-67.541-30.6-25.914-60.51-45.469-125.78-60.274-191.177.999,0,2.016-.136,3.016-.418,71.592-19.991,154.001,19.165,183.72,87.287,20.791,47.658,29.402,110.857-1.59,155.091-.936,1.326-1.898,2.634-2.907,3.933l-.009.009c-7.439,9.61-16.913,18.22-28.693,25.45-5.341,3.279-7.012,10.273-3.733,15.614,2.144,3.497,5.868,5.423,9.682,5.423,2.026,0,4.078-.545,5.931-1.68,11.544-7.085,21.608-15.523,30.092-25.178,9.701,7.539,13.788,17.975,15.478,26.122,2.716,13.098.872,27.458-4.705,39.883-6.122-11.045-13.361-21.935-21.672-32.626-3.851-4.95-10.981-5.84-15.931-1.989-4.95,3.851-5.84,10.981-1.998,15.932Z" fill="#040404"/>
    <path d="M3191.166,2152.297c6.231-13.933,6.203-31.073-.064-45.86-5.777-13.606-15.959-23.634-28.684-28.248-5.886-2.135-12.407.908-14.542,6.803s.908,12.407,6.803,14.542c6.721,2.434,12.235,8.039,15.514,15.777,3.851,9.083,3.942,19.447.245,27.721-7.239,16.195-26.549,26.913-46.968,26.095-18.629-.754-38.039-10.191-54.643-26.586-3.27-3.225-8.166-4.16-12.389-2.38-70.774,29.874-155.082,29.42-225.529-1.217-70.438-30.628-128.269-91.974-154.691-164.111-1.253-3.424-4.078-6.031-7.584-7.021-3.515-.99-7.285-.227-10.146,2.044-37.049,29.465-87.051,42.408-133.746,34.624-46.695-7.784-89.794-36.241-115.29-76.124-2.761-4.333-8.102-6.267-13.007-4.705-102.61,32.644-224.067-6.113-288.801-92.155-1.917-2.552-4.832-4.178-8.011-4.478-3.179-.291-6.34.763-8.701,2.906-36.813,33.489-94.453,43.189-140.195,23.579-45.733-19.61-78.458-68.058-79.585-117.805-.127-5.74-4.514-10.481-10.227-11.045-5.722-.563-10.954,3.225-12.198,8.829-2.48,11.081-14.033,19.601-25.359,19.637-2.432-4.403-4.972-8.814-7.562-13.226,4.432,11.722,8.047,23.785,11.914,35.71,8.84-.85,17.366-4.206,24.531-9.432,4.269,18.384,12.062,36.159,23.089,52.481,16.931,25.069,39.91,44.343,66.451,55.715,26.531,11.381,56.332,14.741,86.17,9.728,25.65-4.314,49.248-14.469,68.93-29.583,33.771,40.773,80.938,72.219,134.064,89.176,54.261,17.312,112.202,18.693,164.192,4.051,29.329,41.455,75.77,70.792,125.871,79.14,47.949,7.993,98.977-3.297,139.378-30.328,14.178,33.307,34.742,64.716,60.047,91.565,28.802,30.555,63.871,55.333,101.411,71.656,37.549,16.322,79.584,25.078,121.575,25.296.563.009,1.117.009,1.671.009,38.911,0,77.886-7.302,113.31-21.199,19.456,17.185,41.99,27.04,64.144,27.939,1.017.045,2.034.063,3.043.063,12.144,0,23.979-2.934,34.37-8.138,13.87-6.948,25.169-17.948,31.2-31.445Z" fill="#040404"/>
    <path id="w" data-name="Ball Fill" d="M3760.838,2257.305c40.228,51.736,52.527,110.476,32.898,157.135-12.543,29.801-36.404,49.466-63.826,52.59-2.607.3-5.214.445-7.821.445-21.254,0-42.572-9.782-62.2-28.321-.073-.073-.154-.145-.227-.218-.018-.009-.027-.027-.045-.036-7.366-6.994-14.487-15.214-21.272-24.624-3.67-5.087-10.763-6.231-15.85-2.561s-6.231,10.763-2.561,15.85c6.013,8.329,12.289,15.868,18.783,22.589-17.766,42.526-47.022,68.549-82.936,73.526-33.943,4.705-69.484-10.781-90.566-39.447-21.881-29.747-24.696-68.676-7.966-107.451h.009c4.523-1.344,9.074-2.861,13.661-4.551,5.886-2.162,8.91-8.683,6.749-14.569-2.171-5.886-8.692-8.901-14.578-6.739-20.555,7.548-40.156,11.245-58.34,11.245-43.752,0-79.23-21.417-99.649-62.073-30.964-61.646-18.883-154.146,53.099-207.327,13.27,16.849,25.723,31.818,36.15,44.025-15.441,13.188-26.241,30.31-31.127,49.775-1.526,6.076,2.171,12.244,8.247,13.77,6.086,1.526,12.253-2.162,13.779-8.247,11.644-46.386,62.563-66.051,105.071-58.267,45.705,8.365,67.713,58.803,62.581,102.737-.736,6.231,3.724,11.862,9.955,12.589.445.055.89.082,1.335.082,5.677,0,10.582-4.26,11.263-10.037,1.544-13.207,1.044-26.713-1.326-39.729,12.298-21.191,37.649-37.031,64.97-40.492,2.634-.336,5.25-.554,7.829-.645h.018c.009-.009.018-.009.027,0,.191-.009.382-.018.572-.018.045,0,.091-.009.127-.009,22.362-.636,42.644,7.566,57.822,23.561,4.314,4.55,11.508,4.741,16.05.427,4.551-4.323,4.741-11.508.427-16.059-18.066-19.029-41.591-29.592-67.541-30.6-25.914-60.51-45.469-125.78-60.274-191.177.999,0,2.016-.136,3.016-.418,71.591-19.992,154.001,19.165,183.72,87.287,20.791,47.658,29.402,110.857-1.59,155.091-.936,1.326-1.899,2.634-2.907,3.933l-.009.009c-7.439,9.61-16.913,18.22-28.693,25.45-5.341,3.279-7.012,10.273-3.733,15.614,2.143,3.497,5.868,5.422,9.682,5.422,2.026,0,4.078-.545,5.931-1.68,11.544-7.085,21.608-15.523,30.092-25.178,9.701,7.539,13.788,17.975,15.477,26.122,2.716,13.098.872,27.458-4.705,39.883-6.122-11.045-13.361-21.935-21.672-32.626-3.851-4.95-10.981-5.84-15.931-1.989-4.95,3.851-5.84,10.981-1.998,15.931Z" fill="#fff"/>
    <path id="x" data-name="Hat Fill" d="M3630.498,2137.328c-24.96,4.487-48.294,17.348-64.38,34.987-1.962-4.696-4.205-9.219-6.712-13.524-14.869-25.559-37.949-42.354-64.998-47.304-27.885-5.104-56.587-.772-80.82,12.199-.127.073-.254.136-.381.209-12.199-14.224-27.422-32.535-43.553-53.317-.154-.218-.327-.436-.499-.645-29.801-38.448-62.618-85.243-85.262-130.24v-.009c.145-1.054.273-2.098.409-3.17,4.85-39.256,5.777-87.65,2.671-139.959-6.985-117.887-32.399-241.242-71.564-347.358-21.954-59.475-62.082-124.209-97.487-181.332-31.036-50.047-60.338-97.324-72.736-133.029-2.062-5.922-8.529-9.056-14.451-6.994-5.922,2.053-9.056,8.52-7.003,14.451,13.225,38.076,43.171,86.388,74.889,137.543,34.842,56.205,74.326,119.904,95.489,177.226,37.858,102.565,63.444,226.792,70.202,340.828,3.215,54.252,1.998,102.764-3.088,140.767,0,.009-.009.018,0,.027-.127.963-.263,1.908-.4,2.852v.027c-3.978,28.212-10.137,50.401-18.248,64.525-14.26-8.429-30.192-12.798-46.704-12.88,8.792-21.199,12.126-45.633,9.446-70.792-3.551-33.389-17.185-63.381-38.394-84.426-21.027-20.873-49.529-31.454-82.373-30.637-22.489.563-45.624,6.549-66.85,17.112-1.68-49.057-27.612-99.739-67.495-128.76-22.544-16.404-48.848-27.131-76.079-31.027-22.816-3.252-45.297-1.508-65.915,5.041-2.571-21.945-11.317-42.899-25.732-61.355-16.803-21.517-40.937-39.265-69.775-51.328-27.204-11.372-58.44-16.758-87.959-15.168-25.668,1.381-48.748,7.811-67.677,18.747-10.291-30.364-26.313-63.562-56.305-82.082-26.404-16.313-55.851-24.778-85.243-24.542-17.312.145-35.133,4.641-47.031,8.393-2.943.926-14.069,5.613-23.461,10.046-5.15,2.434-9.283,4.523-12.598,6.358-14.287-23.679-32.807-44.252-53.081-58.794-26.795-19.22-54.416-29.038-82.092-29.184-15.377-.082-30.391,2.507-44.533,7.702-2.652.972-12.053,5.65-19.347,9.619-3.642,1.989-6.667,3.724-9.183,5.277-38.166-48.884-96.388-81.456-158.152-87.95-62.654-6.576-127.352,13.87-175.046,54.934-35.478-27.975-78.758-60.129-129.295-68.031-27.331-4.278-57.059.863-81.565,14.115-19.683,10.636-34.361,25.532-42.79,43.08-20.228-19.265-48.939-29.683-76.823-26.786-15.968,1.653-31.245,7.693-44.425,17.494-30.437-13.761-54.47-33.198-69.63-56.369-25.541-39.02-28.348-93.709-7.312-142.72,18.066-42.072,53.117-80.811,101.375-112.047,44.007-28.475,94.008-48.294,142.357-67.459,5.831-2.316,8.683-8.91,6.367-14.742-2.307-5.831-8.901-8.683-14.732-6.367-29.765,11.799-60.147,23.834-89.639,38.057,3.243-85.334,77.15-171.94,208.308-244.022,176.154-96.797,423.764-154.428,686.361-154.428,271.198,0,558.382,61.5,799.134,204.838,25.796,15.359,58.712,47.885,95.18,94.045,36.84,46.632,74.625,103.881,109.295,165.555,79.839,142.039,130.658,284.586,139.432,391.075.599,7.284.926,21.145,1.372,40.328,2.616,112.864,9.492,408.941,106.534,641.318Z" fill="#db2d44"/>
    <path d="M3272.902,2087.445c-9.9-42.971-45.523-80.666-94.444-69.593-4.514,1.017-9.192-.8-11.835-4.605-2.634-3.797-2.707-8.82-.173-12.689,27.721-42.299,20.464-110.739-15.523-146.453-36.686-36.413-97.741-27.603-139.078-.073-3.688,2.452-8.465,2.543-12.235.227-3.769-2.316-5.858-6.613-5.332-11.009,5.504-46.623-18.656-100.957-57.44-129.187-40.691-29.61-93.481-36.595-134.482-17.784-3.552,1.635-7.702,1.317-10.972-.836s-5.205-5.84-5.114-9.755c1.072-45.433-29.701-85.698-82.328-107.696-51.455-21.509-111.547-17.63-146.135,9.437-2.961,2.307-6.867,3.016-10.445,1.871-3.579-1.144-6.367-3.978-7.439-7.575-8.883-29.846-22.716-66.351-51.092-83.872-22.762-14.06-48.031-21.363-73.117-21.163-14.515.127-29.983,4.069-40.41,7.348-4.986,1.671-29.183,12.398-36.086,17.103-1.035,2.053-2.698,3.815-4.896,4.959-5.559,2.898-12.416.736-15.305-4.832-.009-.009-.018-.027-.027-.036-13.325-25.586-32.108-47.885-52.881-62.781-22.898-16.422-46.105-24.814-68.985-24.933-12.671-.1-24.933,2.044-36.486,6.276-3.96,1.617-22.426,11.108-28.202,15.314-.817,1.635-2.053,3.097-3.67,4.215-5.15,3.57-12.226,2.289-15.795-2.861-34.052-49.121-89.867-82.173-149.305-88.413-59.43-6.24-120.903,14.487-164.419,55.46-4.096,3.86-10.418,4.133-14.832.636-36.55-28.965-77.977-61.8-126.225-69.357-43.38-6.785-97.305,16.077-105.307,59.739-.836,4.578-4.387,8.184-8.956,9.092-4.569.899-9.228-1.072-11.753-4.996-14.615-22.68-42.463-36.059-69.312-33.262-7.354.764-14.483,2.817-21.148,5.957.485.157.964.339,1.448.504,11.864,1.703,22.616,8.862,33.519,14.173,28.177,13.723,55.301,31.949,76.489,55.236,5.227,5.745,217.95,231.197,221.949,237.613,18.285,24.499,34.549,49.487,48.244,74.278,11.326-.036,22.88-8.556,25.359-19.637,1.244-5.604,6.476-9.392,12.198-8.829,5.713.563,10.1,5.304,10.227,11.045,1.126,49.747,33.852,98.196,79.585,117.805,45.742,19.61,103.382,9.91,140.195-23.579,2.361-2.144,5.522-3.197,8.701-2.906,3.179.3,6.095,1.926,8.011,4.478,64.734,86.042,186.191,124.8,288.801,92.155,4.905-1.562,10.246.373,13.007,4.705,25.496,39.883,68.594,68.34,115.29,76.124,46.696,7.784,96.697-5.159,133.746-34.624,2.861-2.271,6.63-3.033,10.146-2.044,3.506.99,6.331,3.597,7.584,7.021,26.422,72.137,84.253,133.483,154.691,164.111,70.447,30.637,154.755,31.091,225.529,1.217,4.223-1.78,9.119-.845,12.389,2.38,16.604,16.394,36.014,25.832,54.643,26.586,20.418.817,39.729-9.901,46.968-26.095,3.697-8.275,3.606-18.638-.245-27.721-3.279-7.739-8.792-13.343-15.514-15.777-5.895-2.135-8.938-8.647-6.803-14.542s8.656-8.938,14.542-6.803c12.725,4.614,22.907,14.642,28.684,28.248,6.267,14.787,6.294,31.927.064,45.86-6.031,13.497-17.331,24.497-31.2,31.445-7.193,18.12,8.647,86.697,19.982,90.611,4.178-2.361,8.457-5.722,12.398-9.828,11.063-11.517,21.844-31.763,18.956-54.052-.745-5.777,2.997-11.181,8.674-12.516,46.56-10.917,63.472-64.761,52.926-110.512Z" fill="#fff"/>
    <path id="y" data-name="Hat Fold" d="M3154.733,1147.557c-1.926,0-3.878-.491-5.665-1.523-81.736-47.183-166.124-108.404-236.172-170.662,7.751,13.49,15.76,27.315,23.674,40.973,21.813,37.647,44.369,76.575,60.325,106.511,2.482,4.656,1.43,10.408-2.54,13.883-3.968,3.475-9.81,3.758-14.098.682-72.93-52.333-154.314-74.523-229.157-62.489-6.182.997-12.016-3.215-13.012-9.407-.995-6.191,3.216-12.017,9.408-13.012,40.85-6.57,83.444-3.802,126.594,8.229,27.813,7.754,55.026,19.107,81.298,33.894-12.004-21.238-25.37-44.306-38.466-66.907-21.81-37.64-44.361-76.562-60.315-106.492-2.655-4.979-1.25-11.151,3.298-14.491,4.548-3.34,10.858-2.834,14.815,1.189,76.275,77.536,183.079,159.193,285.701,218.434,5.431,3.135,7.292,10.079,4.157,15.509-2.103,3.642-5.92,5.679-9.844,5.679Z" fill="#040404" stroke="#db2d44" stroke-miterlimit="10" stroke-width="5"/>
  </g>
  <path id="z" data-name="L Front Ear" d="M1734.569,2100.354c-90.264-37.829-150.263-107.085-152.477-204.93-1.255-55.487,14.482-137.58,15.063-193.079.691-65.959-27.932-98.067-57.691-156.149-85.715-167.291-208.131-207.442-272.011-175.992v-.002c14.36-7.413,29.951-13.395,47.421-17.643,86.809-21.108,198.407,23.55,266.407,81.492,68,57.942,131.798,116.992,178.435,193.191,63.308,103.439,123.08,244.625,141.894,359.989" fill="#fff" fill-rule="evenodd" stroke="#040404" stroke-linecap="round" stroke-miterlimit="10" stroke-width="22.707"/>
</svg>
